<svg width="940" height="132" viewBox="0 0 940 132" fill="none" xmlns="http://www.w3.org/2000/svg" shape-rendering="crispEdges">
  <rect width="940" height="132" fill="#FFFFFF"/>

  <g transform="translate(18 6)">
    <rect x="0" y="0" width="120" height="120" rx="16" fill="#4C1D95"/>
    <g transform="translate(28 24)">
      <rect x="20" y="4" width="2" height="10" fill="#7C2D12"/><rect x="42" y="4" width="2" height="10" fill="#7C2D12"/><rect x="24" y="4" width="4" height="8" fill="#FBBF24"/><rect x="30" y="2" width="4" height="10" fill="#FDE047"/><rect x="36" y="4" width="4" height="8" fill="#FBBF24"/><rect x="16" y="12" width="8" height="4" fill="#7C2D12"/><rect x="40" y="12" width="8" height="4" fill="#7C2D12"/><rect x="14" y="16" width="8" height="8" fill="#FFF7ED"/><rect x="42" y="16" width="8" height="8" fill="#FFF7ED"/><rect x="16" y="18" width="4" height="4" fill="#111827"/><rect x="44" y="18" width="4" height="4" fill="#111827"/><rect x="8" y="28" width="10" height="8" fill="#DC2626"/><rect x="12" y="24" width="10" height="4" fill="#FB923C"/><rect x="10" y="36" width="8" height="4" fill="#7C2D12"/><rect x="46" y="28" width="10" height="8" fill="#DC2626"/><rect x="42" y="24" width="10" height="4" fill="#FB923C"/><rect x="46" y="36" width="8" height="4" fill="#7C2D12"/><rect x="20" y="22" width="24" height="18" fill="#DC2626"/><rect x="24" y="26" width="16" height="6" fill="#FB923C"/><rect x="20" y="40" width="24" height="10" fill="#FDBA74"/><rect x="26" y="42" width="12" height="2" fill="#7C2D12"/><rect x="18" y="48" width="8" height="8" fill="#DC2626"/><rect x="28" y="50" width="8" height="8" fill="#DC2626"/><rect x="38" y="48" width="8" height="8" fill="#DC2626"/><rect x="46" y="6" width="12" height="12" rx="3" fill="#F8FAFC"/><rect x="48" y="8" width="8" height="8" fill="#0F172A"/><rect x="48" y="10" width="2" height="4" fill="#FBBF24"/><rect x="51" y="8" width="2" height="6" fill="#FDE047"/><rect x="54" y="10" width="2" height="4" fill="#FBBF24"/><rect x="48" y="14" width="8" height="2" fill="#D97706"/>
    </g>
  </g>

  <g transform="translate(202 6)">
    <rect x="0" y="0" width="120" height="120" rx="16" fill="#1E3A8A"/>
    <g transform="translate(28 24)">
      <rect x="20" y="4" width="2" height="10" fill="#7C2D12"/><rect x="42" y="4" width="2" height="10" fill="#7C2D12"/><rect x="24" y="8" width="16" height="4" fill="#60A5FA"/><rect x="20" y="12" width="24" height="2" fill="#2563EB"/><rect x="16" y="12" width="8" height="4" fill="#7C2D12"/><rect x="40" y="12" width="8" height="4" fill="#7C2D12"/><rect x="14" y="16" width="8" height="8" fill="#FFF7ED"/><rect x="42" y="16" width="8" height="8" fill="#FFF7ED"/><rect x="16" y="18" width="4" height="4" fill="#111827"/><rect x="44" y="18" width="4" height="4" fill="#111827"/><rect x="8" y="28" width="10" height="8" fill="#DC2626"/><rect x="12" y="24" width="10" height="4" fill="#FB923C"/><rect x="10" y="36" width="8" height="4" fill="#7C2D12"/><rect x="46" y="28" width="10" height="8" fill="#DC2626"/><rect x="42" y="24" width="10" height="4" fill="#FB923C"/><rect x="46" y="36" width="8" height="4" fill="#7C2D12"/><rect x="20" y="22" width="24" height="18" fill="#DC2626"/><rect x="24" y="26" width="16" height="6" fill="#FB923C"/><rect x="20" y="40" width="24" height="10" fill="#FDBA74"/><rect x="26" y="42" width="12" height="2" fill="#7C2D12"/><rect x="18" y="48" width="8" height="8" fill="#DC2626"/><rect x="28" y="50" width="8" height="8" fill="#DC2626"/><rect x="38" y="48" width="8" height="8" fill="#DC2626"/><rect x="46" y="6" width="12" height="12" rx="3" fill="#F8FAFC"/><rect x="48" y="8" width="8" height="8" fill="#0F172A"/><rect x="49" y="10" width="6" height="2" fill="#60A5FA"/><rect x="49" y="13" width="6" height="1" fill="#60A5FA"/>
    </g>
  </g>

  <g transform="translate(386 6)">
    <rect x="0" y="0" width="120" height="120" rx="16" fill="#92400E"/>
    <g transform="translate(28 24)">
      <rect x="20" y="4" width="2" height="10" fill="#7C2D12"/><rect x="42" y="4" width="2" height="10" fill="#7C2D12"/><rect x="22" y="8" width="16" height="4" fill="#FDBA74"/><rect x="34" y="6" width="10" height="6" fill="#FB923C"/><rect x="16" y="12" width="8" height="4" fill="#7C2D12"/><rect x="40" y="12" width="8" height="4" fill="#7C2D12"/><rect x="14" y="16" width="8" height="8" fill="#FFF7ED"/><rect x="42" y="16" width="8" height="8" fill="#FFF7ED"/><rect x="16" y="18" width="4" height="4" fill="#111827"/><rect x="44" y="18" width="4" height="4" fill="#111827"/><rect x="8" y="28" width="10" height="8" fill="#DC2626"/><rect x="12" y="24" width="10" height="4" fill="#FB923C"/><rect x="10" y="36" width="8" height="4" fill="#7C2D12"/><rect x="46" y="28" width="10" height="8" fill="#DC2626"/><rect x="42" y="24" width="10" height="4" fill="#FB923C"/><rect x="46" y="36" width="8" height="4" fill="#7C2D12"/><rect x="20" y="22" width="24" height="18" fill="#DC2626"/><rect x="24" y="26" width="16" height="6" fill="#FB923C"/><rect x="20" y="40" width="24" height="10" fill="#FDBA74"/><rect x="26" y="42" width="12" height="2" fill="#7C2D12"/><rect x="18" y="48" width="8" height="8" fill="#DC2626"/><rect x="28" y="50" width="8" height="8" fill="#DC2626"/><rect x="38" y="48" width="8" height="8" fill="#DC2626"/><rect x="46" y="6" width="12" height="12" rx="3" fill="#F8FAFC"/><rect x="48" y="8" width="8" height="8" fill="#0F172A"/><rect x="49" y="10" width="2" height="5" fill="#FB7185"/><rect x="51" y="12" width="2" height="3" fill="#34D399"/><rect x="53" y="9" width="2" height="6" fill="#FBBF24"/>
    </g>
  </g>

  <g transform="translate(570 6)">
    <rect x="0" y="0" width="120" height="120" rx="16" fill="#14532D"/>
    <g transform="translate(28 24)">
      <rect x="20" y="4" width="2" height="10" fill="#7C2D12"/><rect x="42" y="4" width="2" height="10" fill="#7C2D12"/><rect x="16" y="12" width="8" height="4" fill="#7C2D12"/><rect x="40" y="12" width="8" height="4" fill="#7C2D12"/><rect x="14" y="16" width="8" height="8" fill="#FFF7ED"/><rect x="42" y="16" width="8" height="8" fill="#FFF7ED"/><rect x="16" y="18" width="4" height="4" fill="#111827"/><rect x="44" y="18" width="4" height="4" fill="#111827"/><rect x="12" y="24" width="16" height="2" fill="#67E8F9"/><rect x="12" y="30" width="16" height="2" fill="#67E8F9"/><rect x="12" y="24" width="2" height="8" fill="#67E8F9"/><rect x="26" y="24" width="2" height="8" fill="#67E8F9"/><rect x="36" y="24" width="16" height="2" fill="#67E8F9"/><rect x="36" y="30" width="16" height="2" fill="#67E8F9"/><rect x="36" y="24" width="2" height="8" fill="#67E8F9"/><rect x="50" y="24" width="2" height="8" fill="#67E8F9"/><rect x="28" y="26" width="8" height="2" fill="#67E8F9"/><rect x="8" y="28" width="10" height="8" fill="#DC2626"/><rect x="12" y="24" width="10" height="4" fill="#FB923C"/><rect x="10" y="36" width="8" height="4" fill="#7C2D12"/><rect x="46" y="28" width="10" height="8" fill="#DC2626"/><rect x="42" y="24" width="10" height="4" fill="#FB923C"/><rect x="46" y="36" width="8" height="4" fill="#7C2D12"/><rect x="20" y="22" width="24" height="18" fill="#DC2626"/><rect x="24" y="26" width="16" height="6" fill="#FB923C"/><rect x="20" y="40" width="24" height="10" fill="#FDBA74"/><rect x="26" y="42" width="12" height="2" fill="#7C2D12"/><rect x="18" y="48" width="8" height="8" fill="#DC2626"/><rect x="28" y="50" width="8" height="8" fill="#DC2626"/><rect x="38" y="48" width="8" height="8" fill="#DC2626"/><rect x="46" y="6" width="12" height="12" rx="3" fill="#F8FAFC"/><rect x="48" y="8" width="8" height="8" fill="#0F172A"/><rect x="49" y="11" width="2" height="2" fill="#67E8F9"/><rect x="51" y="9" width="1" height="6" fill="#67E8F9"/><rect x="53" y="11" width="2" height="2" fill="#67E8F9"/>
    </g>
  </g>

  <g transform="translate(754 6)">
    <rect x="0" y="0" width="120" height="120" rx="16" fill="#7F1D1D"/>
    <g transform="translate(28 24)">
      <rect x="20" y="4" width="2" height="10" fill="#7C2D12"/><rect x="42" y="4" width="2" height="10" fill="#7C2D12"/><rect x="16" y="12" width="8" height="4" fill="#7C2D12"/><rect x="40" y="12" width="8" height="4" fill="#7C2D12"/><rect x="14" y="16" width="8" height="8" fill="#FFF7ED"/><rect x="42" y="16" width="8" height="8" fill="#FFF7ED"/><rect x="16" y="18" width="4" height="4" fill="#111827"/><rect x="44" y="18" width="4" height="4" fill="#111827"/><rect x="40" y="22" width="14" height="2" fill="#86EFAC"/><rect x="40" y="32" width="14" height="2" fill="#86EFAC"/><rect x="40" y="22" width="2" height="12" fill="#86EFAC"/><rect x="52" y="22" width="2" height="12" fill="#86EFAC"/><rect x="36" y="26" width="4" height="2" fill="#86EFAC"/><rect x="8" y="28" width="10" height="8" fill="#DC2626"/><rect x="12" y="24" width="10" height="4" fill="#FB923C"/><rect x="10" y="36" width="8" height="4" fill="#7C2D12"/><rect x="46" y="28" width="10" height="8" fill="#DC2626"/><rect x="42" y="24" width="10" height="4" fill="#FB923C"/><rect x="46" y="36" width="8" height="4" fill="#7C2D12"/><rect x="20" y="22" width="24" height="18" fill="#DC2626"/><rect x="24" y="26" width="16" height="6" fill="#FB923C"/><rect x="20" y="40" width="24" height="10" fill="#FDBA74"/><rect x="26" y="42" width="12" height="2" fill="#7C2D12"/><rect x="18" y="48" width="8" height="8" fill="#DC2626"/><rect x="28" y="50" width="8" height="8" fill="#DC2626"/><rect x="38" y="48" width="8" height="8" fill="#DC2626"/><rect x="46" y="6" width="12" height="12" rx="3" fill="#F8FAFC"/><rect x="48" y="8" width="8" height="8" fill="#0F172A"/><rect x="49" y="12" width="2" height="2" fill="#86EFAC"/><rect x="51" y="14" width="2" height="1" fill="#86EFAC"/><rect x="53" y="10" width="2" height="5" fill="#86EFAC"/>
    </g>
  </g>
</svg>