    <svg viewBox="0 0 620 116" width="900" fill="none" shape-rendering="crispEdges" xmlns="http://www.w3.org/2000/svg" aria-label="PO, SM, Designer, Developer, Tester avatars">
        <g transform="translate(12 0)">
            <rect x="0" y="0" width="64" height="64" rx="12" fill="#4c1d95" />
            <rect x="20" y="4" width="2" height="10" fill="#7c2d12" />
            <rect x="42" y="4" width="2" height="10" fill="#7c2d12" />
            <rect x="24" y="4" width="4" height="8" fill="#fbbf24" />
            <rect x="30" y="2" width="4" height="10" fill="#fde047" />
            <rect x="36" y="4" width="4" height="8" fill="#fbbf24" />
            <rect x="16" y="12" width="8" height="4" fill="#7c2d12" />
            <rect x="40" y="12" width="8" height="4" fill="#7c2d12" />
            <rect x="14" y="16" width="8" height="8" fill="#fff7ed" />
            <rect x="42" y="16" width="8" height="8" fill="#fff7ed" />
            <rect x="16" y="18" width="4" height="4" fill="#111827" />
            <rect x="44" y="18" width="4" height="4" fill="#111827" />
            <rect x="8" y="28" width="10" height="8" fill="#dc2626" />
            <rect x="12" y="24" width="10" height="4" fill="#fb923c" />
            <rect x="10" y="36" width="8" height="4" fill="#7c2d12" />
            <rect x="46" y="28" width="10" height="8" fill="#dc2626" />
            <rect x="42" y="24" width="10" height="4" fill="#fb923c" />
            <rect x="46" y="36" width="8" height="4" fill="#7c2d12" />
            <rect x="20" y="22" width="24" height="18" rx="4" fill="#dc2626" />
            <rect x="24" y="26" width="16" height="6" fill="#fb923c" />
            <rect x="20" y="40" width="24" height="10" rx="4" fill="#fdba74" />
            <rect x="26" y="42" width="12" height="2" fill="#7c2d12" />
            <rect x="18" y="48" width="8" height="8" fill="#dc2626" />
            <rect x="28" y="50" width="8" height="8" fill="#dc2626" />
            <rect x="38" y="48" width="8" height="8" fill="#dc2626" />
            <rect x="18" y="56" width="8" height="4" fill="#7c2d12" />
            <rect x="28" y="58" width="8" height="4" fill="#7c2d12" />
            <rect x="38" y="56" width="8" height="4" fill="#7c2d12" />
            <rect x="46" y="6" width="12" height="12" rx="3" fill="#f8fafc" />
            <rect x="48" y="8" width="8" height="8" fill="#0f172a" />
            <rect x="48" y="10" width="2" height="4" fill="#fbbf24" />
            <rect x="51" y="8" width="2" height="6" fill="#fde047" />
            <rect x="54" y="10" width="2" height="4" fill="#fbbf24" />
            <rect x="48" y="14" width="8" height="2" fill="#d97706" />
            <text x="32" y="96" text-anchor="middle" font-family="monospace" font-size="11" fill="#111827">PO</text>
        </g>
        <g transform="translate(136 0)">
            <rect x="0" y="0" width="64" height="64" rx="12" fill="#1e3a8a" />
            <rect x="20" y="4" width="2" height="10" fill="#7c2d12" />
            <rect x="42" y="4" width="2" height="10" fill="#7c2d12" />
            <rect x="24" y="8" width="16" height="4" fill="#60a5fa" />
            <rect x="20" y="12" width="24" height="2" fill="#2563eb" />
            <rect x="16" y="12" width="8" height="4" fill="#7c2d12" />
            <rect x="40" y="12" width="8" height="4" fill="#7c2d12" />
            <rect x="14" y="16" width="8" height="8" fill="#fff7ed" />
            <rect x="42" y="16" width="8" height="8" fill="#fff7ed" />
            <rect x="16" y="18" width="4" height="4" fill="#111827" />
            <rect x="44" y="18" width="4" height="4" fill="#111827" />
            <rect x="8" y="28" width="10" height="8" fill="#dc2626" />
            <rect x="12" y="24" width="10" height="4" fill="#fb923c" />
            <rect x="10" y="36" width="8" height="4" fill="#7c2d12" />
            <rect x="46" y="28" width="10" height="8" fill="#dc2626" />
            <rect x="42" y="24" width="10" height="4" fill="#fb923c" />
            <rect x="46" y="36" width="8" height="4" fill="#7c2d12" />
            <rect x="20" y="22" width="24" height="18" rx="4" fill="#dc2626" />
            <rect x="24" y="26" width="16" height="6" fill="#fb923c" />
            <rect x="20" y="40" width="24" height="10" rx="4" fill="#fdba74" />
            <rect x="26" y="42" width="12" height="2" fill="#7c2d12" />
            <rect x="18" y="48" width="8" height="8" fill="#dc2626" />
            <rect x="28" y="50" width="8" height="8" fill="#dc2626" />
            <rect x="38" y="48" width="8" height="8" fill="#dc2626" />
            <rect x="18" y="56" width="8" height="4" fill="#7c2d12" />
            <rect x="28" y="58" width="8" height="4" fill="#7c2d12" />
            <rect x="38" y="56" width="8" height="4" fill="#7c2d12" />
            <rect x="46" y="6" width="12" height="12" rx="3" fill="#f8fafc" />
            <rect x="48" y="8" width="8" height="8" fill="#0f172a" />
            <rect x="49" y="10" width="6" height="2" fill="#60a5fa" />
            <rect x="49" y="13" width="6" height="1" fill="#60a5fa" />
            <text x="32" y="96" text-anchor="middle" font-family="monospace" font-size="11" fill="#111827">SM</text>
        </g>
        <g transform="translate(260 0)">
            <rect x="0" y="0" width="64" height="64" rx="12" fill="#92400e" />
            <rect x="20" y="4" width="2" height="10" fill="#7c2d12" />
            <rect x="42" y="4" width="2" height="10" fill="#7c2d12" />
            <rect x="22" y="8" width="16" height="4" fill="#fdba74" />
            <rect x="34" y="6" width="10" height="6" fill="#fb923c" />
            <rect x="16" y="12" width="8" height="4" fill="#7c2d12" />
            <rect x="40" y="12" width="8" height="4" fill="#7c2d12" />
            <rect x="14" y="16" width="8" height="8" fill="#fff7ed" />
            <rect x="42" y="16" width="8" height="8" fill="#fff7ed" />
            <rect x="16" y="18" width="4" height="4" fill="#111827" />
            <rect x="44" y="18" width="4" height="4" fill="#111827" />
            <rect x="8" y="28" width="10" height="8" fill="#dc2626" />
            <rect x="12" y="24" width="10" height="4" fill="#fb923c" />
            <rect x="10" y="36" width="8" height="4" fill="#7c2d12" />
            <rect x="46" y="28" width="10" height="8" fill="#dc2626" />
            <rect x="42" y="24" width="10" height="4" fill="#fb923c" />
            <rect x="46" y="36" width="8" height="4" fill="#7c2d12" />
            <rect x="20" y="22" width="24" height="18" rx="4" fill="#dc2626" />
            <rect x="24" y="26" width="16" height="6" fill="#fb923c" />
            <rect x="20" y="40" width="24" height="10" rx="4" fill="#fdba74" />
            <rect x="26" y="42" width="12" height="2" fill="#7c2d12" />
            <rect x="18" y="48" width="8" height="8" fill="#dc2626" />
            <rect x="28" y="50" width="8" height="8" fill="#dc2626" />
            <rect x="38" y="48" width="8" height="8" fill="#dc2626" />
            <rect x="18" y="56" width="8" height="4" fill="#7c2d12" />
            <rect x="28" y="58" width="8" height="4" fill="#7c2d12" />
            <rect x="38" y="56" width="8" height="4" fill="#7c2d12" />
            <rect x="46" y="6" width="12" height="12" rx="3" fill="#f8fafc" />
            <rect x="48" y="8" width="8" height="8" fill="#0f172a" />
            <rect x="49" y="10" width="2" height="5" fill="#fb7185" />
            <rect x="51" y="12" width="2" height="3" fill="#34d399" />
            <rect x="53" y="9" width="2" height="6" fill="#fbbf24" />
            <text x="32" y="96" text-anchor="middle" font-family="monospace" font-size="10" fill="#111827">DESIGNER</text>
        </g>
        <g transform="translate(384 0)">
            <rect x="0" y="0" width="64" height="64" rx="12" fill="#14532d" />
            <rect x="20" y="4" width="2" height="10" fill="#7c2d12" />
            <rect x="42" y="4" width="2" height="10" fill="#7c2d12" />
            <rect x="16" y="12" width="8" height="4" fill="#7c2d12" />
            <rect x="40" y="12" width="8" height="4" fill="#7c2d12" />
            <rect x="14" y="16" width="8" height="8" fill="#fff7ed" />
            <rect x="42" y="16" width="8" height="8" fill="#fff7ed" />
            <rect x="16" y="18" width="4" height="4" fill="#111827" />
            <rect x="44" y="18" width="4" height="4" fill="#111827" />
            <rect x="12" y="24" width="16" height="2" fill="#67e8f9" />
            <rect x="12" y="30" width="16" height="2" fill="#67e8f9" />
            <rect x="12" y="24" width="2" height="8" fill="#67e8f9" />
            <rect x="26" y="24" width="2" height="8" fill="#67e8f9" />
            <rect x="36" y="24" width="16" height="2" fill="#67e8f9" />
            <rect x="36" y="30" width="16" height="2" fill="#67e8f9" />
            <rect x="36" y="24" width="2" height="8" fill="#67e8f9" />
            <rect x="50" y="24" width="2" height="8" fill="#67e8f9" />
            <rect x="28" y="26" width="8" height="2" fill="#67e8f9" />
            <rect x="8" y="28" width="10" height="8" fill="#dc2626" />
            <rect x="12" y="24" width="10" height="4" fill="#fb923c" />
            <rect x="10" y="36" width="8" height="4" fill="#7c2d12" />
            <rect x="46" y="28" width="10" height="8" fill="#dc2626" />
            <rect x="42" y="24" width="10" height="4" fill="#fb923c" />
            <rect x="46" y="36" width="8" height="4" fill="#7c2d12" />
            <rect x="20" y="22" width="24" height="18" rx="4" fill="#dc2626" />
            <rect x="24" y="26" width="16" height="6" fill="#fb923c" />
            <rect x="20" y="40" width="24" height="10" rx="4" fill="#fdba74" />
            <rect x="26" y="42" width="12" height="2" fill="#7c2d12" />
            <rect x="18" y="48" width="8" height="8" fill="#dc2626" />
            <rect x="28" y="50" width="8" height="8" fill="#dc2626" />
            <rect x="38" y="48" width="8" height="8" fill="#dc2626" />
            <rect x="18" y="56" width="8" height="4" fill="#7c2d12" />
            <rect x="28" y="58" width="8" height="4" fill="#7c2d12" />
            <rect x="38" y="56" width="8" height="4" fill="#7c2d12" />
            <rect x="46" y="6" width="12" height="12" rx="3" fill="#f8fafc" />
            <rect x="48" y="8" width="8" height="8" fill="#0f172a" />
            <rect x="49" y="11" width="2" height="2" fill="#67e8f9" />
            <rect x="51" y="9" width="1" height="6" fill="#67e8f9" />
            <rect x="53" y="11" width="2" height="2" fill="#67e8f9" />
            <text x="32" y="96" text-anchor="middle" font-family="monospace" font-size="11" fill="#111827">DEV</text>
        </g>
        <g transform="translate(508 0)">
            <rect x="0" y="0" width="64" height="64" rx="12" fill="#7f1d1d" />
            <rect x="20" y="4" width="2" height="10" fill="#7c2d12" />
            <rect x="42" y="4" width="2" height="10" fill="#7c2d12" />
            <rect x="16" y="12" width="8" height="4" fill="#7c2d12" />
            <rect x="40" y="12" width="8" height="4" fill="#7c2d12" />
            <rect x="14" y="16" width="8" height="8" fill="#fff7ed" />
            <rect x="42" y="16" width="8" height="8" fill="#fff7ed" />
            <rect x="16" y="18" width="4" height="4" fill="#111827" />
            <rect x="44" y="18" width="4" height="4" fill="#111827" />
            <rect x="40" y="22" width="14" height="2" fill="#86efac" />
            <rect x="40" y="32" width="14" height="2" fill="#86efac" />
            <rect x="40" y="22" width="2" height="12" fill="#86efac" />
            <rect x="52" y="22" width="2" height="12" fill="#86efac" />
            <rect x="36" y="26" width="4" height="2" fill="#86efac" />
            <rect x="8" y="28" width="10" height="8" fill="#dc2626" />
            <rect x="12" y="24" width="10" height="4" fill="#fb923c" />
            <rect x="10" y="36" width="8" height="4" fill="#7c2d12" />
            <rect x="46" y="28" width="10" height="8" fill="#dc2626" />
            <rect x="42" y="24" width="10" height="4" fill="#fb923c" />
            <rect x="46" y="36" width="8" height="4" fill="#7c2d12" />
            <rect x="20" y="22" width="24" height="18" rx="4" fill="#dc2626" />
            <rect x="24" y="26" width="16" height="6" fill="#fb923c" />
            <rect x="20" y="40" width="24" height="10" rx="4" fill="#fdba74" />
            <rect x="26" y="42" width="12" height="2" fill="#7c2d12" />
            <rect x="18" y="48" width="8" height="8" fill="#dc2626" />
            <rect x="28" y="50" width="8" height="8" fill="#dc2626" />
            <rect x="38" y="48" width="8" height="8" fill="#dc2626" />
            <rect x="18" y="56" width="8" height="4" fill="#7c2d12" />
            <rect x="28" y="58" width="8" height="4" fill="#7c2d12" />
            <rect x="38" y="56" width="8" height="4" fill="#7c2d12" />
            <rect x="46" y="6" width="12" height="12" rx="3" fill="#f8fafc" />
            <rect x="48" y="8" width="8" height="8" fill="#0f172a" />
            <rect x="49" y="12" width="2" height="2" fill="#86efac" />
            <rect x="51" y="14" width="2" height="1" fill="#86efac" />
            <rect x="53" y="10" width="2" height="5" fill="#86efac" />
            <text x="32" y="96" text-anchor="middle" font-family="monospace" font-size="10" fill="#111827">TESTER</text>
        </g>
    </svg>
