<svg width="1200" height="520" viewBox="0 0 1200 520" fill="none" xmlns="http://www.w3.org/2000/svg" shape-rendering="crispEdges">
  <rect width="1200" height="520" fill="#FFFFFF"/>
  <rect x="64" y="64" width="1072" height="392" rx="28" fill="#F8FAFC"/>
  <rect x="96" y="96" width="1008" height="328" rx="20" fill="#EFF6FF"/>
  <rect x="424" y="140" width="352" height="112" rx="16" fill="#E0F2FE"/>
  <rect x="456" y="166" width="288" height="14" fill="#7DD3FC"/>
  <rect x="456" y="194" width="220" height="14" fill="#38BDF8"/>
  <rect x="456" y="222" width="164" height="14" fill="#0EA5E9"/>
  <rect x="308" y="322" width="584" height="78" rx="12" fill="#E2E8F0"/>

  <g transform="translate(156 156) scale(4)">
    <rect x="20" y="4" width="2" height="10" fill="#7C2D12"/>
    <rect x="42" y="4" width="2" height="10" fill="#7C2D12"/>
    <rect x="24" y="4" width="4" height="8" fill="#FBBF24"/>
    <rect x="30" y="2" width="4" height="10" fill="#FDE047"/>
    <rect x="36" y="4" width="4" height="8" fill="#FBBF24"/>
    <rect x="16" y="12" width="8" height="4" fill="#7C2D12"/>
    <rect x="40" y="12" width="8" height="4" fill="#7C2D12"/>
    <rect x="14" y="16" width="8" height="8" fill="#FFF7ED"/>
    <rect x="42" y="16" width="8" height="8" fill="#FFF7ED"/>
    <rect x="16" y="18" width="4" height="4" fill="#111827"/>
    <rect x="44" y="18" width="4" height="4" fill="#111827"/>
    <rect x="8" y="28" width="10" height="8" fill="#DC2626"/>
    <rect x="12" y="24" width="10" height="4" fill="#FB923C"/>
    <rect x="10" y="36" width="8" height="4" fill="#7C2D12"/>
    <rect x="46" y="28" width="10" height="8" fill="#DC2626"/>
    <rect x="42" y="24" width="10" height="4" fill="#FB923C"/>
    <rect x="46" y="36" width="8" height="4" fill="#7C2D12"/>
    <rect x="20" y="22" width="24" height="18" fill="#DC2626"/>
    <rect x="24" y="26" width="16" height="6" fill="#FB923C"/>
    <rect x="20" y="40" width="24" height="10" fill="#FDBA74"/>
    <rect x="26" y="42" width="12" height="2" fill="#7C2D12"/>
    <rect x="18" y="48" width="8" height="8" fill="#DC2626"/>
    <rect x="28" y="50" width="8" height="8" fill="#DC2626"/>
    <rect x="38" y="48" width="8" height="8" fill="#DC2626"/>
  </g>

  <g transform="translate(870 202) scale(2.8)">
    <rect x="20" y="4" width="2" height="10" fill="#7C2D12"/>
    <rect x="42" y="4" width="2" height="10" fill="#7C2D12"/>
    <rect x="16" y="12" width="8" height="4" fill="#7C2D12"/>
    <rect x="40" y="12" width="8" height="4" fill="#7C2D12"/>
    <rect x="14" y="16" width="8" height="8" fill="#FFF7ED"/>
    <rect x="42" y="16" width="8" height="8" fill="#FFF7ED"/>
    <rect x="16" y="18" width="4" height="4" fill="#111827"/>
    <rect x="44" y="18" width="4" height="4" fill="#111827"/>
    <rect x="12" y="24" width="16" height="2" fill="#67E8F9"/>
    <rect x="12" y="30" width="16" height="2" fill="#67E8F9"/>
    <rect x="12" y="24" width="2" height="8" fill="#67E8F9"/>
    <rect x="26" y="24" width="2" height="8" fill="#67E8F9"/>
    <rect x="36" y="24" width="16" height="2" fill="#67E8F9"/>
    <rect x="36" y="30" width="16" height="2" fill="#67E8F9"/>
    <rect x="36" y="24" width="2" height="8" fill="#67E8F9"/>
    <rect x="50" y="24" width="2" height="8" fill="#67E8F9"/>
    <rect x="28" y="26" width="8" height="2" fill="#67E8F9"/>
    <rect x="8" y="28" width="10" height="8" fill="#DC2626"/>
    <rect x="12" y="24" width="10" height="4" fill="#FB923C"/>
    <rect x="10" y="36" width="8" height="4" fill="#7C2D12"/>
    <rect x="46" y="28" width="10" height="8" fill="#DC2626"/>
    <rect x="42" y="24" width="10" height="4" fill="#FB923C"/>
    <rect x="46" y="36" width="8" height="4" fill="#7C2D12"/>
    <rect x="20" y="22" width="24" height="18" fill="#DC2626"/>
    <rect x="24" y="26" width="16" height="6" fill="#FB923C"/>
    <rect x="20" y="40" width="24" height="10" fill="#FDBA74"/>
    <rect x="18" y="48" width="8" height="8" fill="#DC2626"/>
    <rect x="28" y="50" width="8" height="8" fill="#DC2626"/>
    <rect x="38" y="48" width="8" height="8" fill="#DC2626"/>
  </g>

  <text x="600" y="348" text-anchor="middle" fill="#0F172A" font-family="monospace" font-size="42" font-weight="700" letter-spacing="4">AGILECLAWTEAM</text>
  <text x="600" y="384" text-anchor="middle" fill="#0F172A" font-family="monospace" font-size="24" font-weight="700" letter-spacing="2">AUTONOMOUS SCRUM LOBSTERS FOR SMALL PROJECTS</text>
</svg>